<?xml version="1.0" encoding="utf-8"?>
<!-- Generator: Adobe Illustrator 19.0.0, SVG Export Plug-In . SVG Version: 6.00 Build 0)  -->
<svg version="1.1" id="Layer_1" xmlns="http://www.w3.org/2000/svg" xmlns:xlink="http://www.w3.org/1999/xlink" x="0px" y="0px"
	 viewBox="0 0 96 96" style="enable-background:new 0 0 96 96;" xml:space="preserve">
<style type="text/css">
	.st0{fill:#32BEA6;}
	.st1{fill:#F0F1F1;}
	.st2{fill:#FFFFFF;}
	.st3{fill:#F3B607;}
	.st4{fill:#FBE158;}
	.st5{fill:#8E6134;}
	.st6{fill:#A97A45;}
	.st7{fill:#40C9E7;}
	.st8{fill:#0D9681;}
	.st9{fill:#17B198;}
</style>
<g id="XMLID_1_">
	<circle id="XMLID_3_" class="st0" cx="48" cy="48" r="32.5"/>
	<path id="XMLID_4_" class="st1" d="M66.9,45c0-3.5-2.1-6.4-5.2-7.7c-2.4-5.9-6.3-8.3-11.1-8.3c-4.5,0-8.4,2.6-10.3,6.3
		c-3-1.3-6.4,0.9-6.6,4.2c-2.8,1-4.7,3.6-4.7,6.7c0,3.9,3.2,7.1,7.1,7.1h23.6C59.8,53.3,66.9,52,66.9,45z"/>
	<path id="XMLID_5_" class="st2" d="M50.7,29.1c-4.5,0-8.4,2.6-10.3,6.3c-3-1.3-6.4,0.9-6.6,4.2c-2.8,1-4.7,3.6-4.7,6.7
		c0,3.7,2.9,6.8,6.5,7.1l21.9-21.9C55.5,29.8,53.2,29.1,50.7,29.1z"/>
	<path id="XMLID_6_" class="st3" d="M45.6,66.3c-1,0-1.8-0.8-1.8-1.8V50.4c0-1,0.8-1.8,1.8-1.8h14.2c1,0,1.8,0.8,1.8,1.8v14.2
		c0,1-0.8,1.8-1.8,1.8H45.6z"/>
	<path id="XMLID_9_" class="st2" d="M59.8,49.2c0.7,0,1.2,0.5,1.2,1.2v14.2c0,0.7-0.5,1.2-1.2,1.2H45.6c-0.7,0-1.2-0.5-1.2-1.2V50.4
		c0-0.7,0.5-1.2,1.2-1.2H59.8 M59.8,48H45.6c-1.3,0-2.4,1.1-2.4,2.4v14.2c0,1.3,1.1,2.4,2.4,2.4h14.2c1.3,0,2.4-1.1,2.4-2.4V50.4
		C62.2,49.1,61.1,48,59.8,48z"/>
	<circle id="XMLID_10_" class="st4" cx="49.2" cy="52.7" r="2.4"/>
	<path id="XMLID_11_" class="st5" d="M44.5,63.4v1.2c0,0.7,0.5,1.2,1.2,1.2h7.1L48,56.3L44.5,63.4z"/>
	<polygon id="XMLID_12_" class="st2" points="46.8,58.6 48,61 49.2,58.6 48,56.3 	"/>
	<path id="XMLID_13_" class="st6" d="M61,64.5v-4.9l-4.7-8.1L48,65.7h11.8C60.5,65.7,61,65.2,61,64.5z"/>
	<polygon id="XMLID_14_" class="st2" points="56.3,58.6 58.3,55.1 56.3,51.5 54.2,55.1 	"/>
	<path id="XMLID_15_" class="st7" d="M38.5,60.4c-1,0-1.8-0.8-1.8-1.8V44.5c0-1,0.8-1.8,1.8-1.8h14.2c1,0,1.8,0.8,1.8,1.8v14.2
		c0,1-0.8,1.8-1.8,1.8H38.5z"/>
	<path id="XMLID_18_" class="st2" d="M52.7,43.3c0.7,0,1.2,0.5,1.2,1.2v14.2c0,0.7-0.5,1.2-1.2,1.2H38.5c-0.7,0-1.2-0.5-1.2-1.2
		V44.5c0-0.7,0.5-1.2,1.2-1.2H52.7 M52.7,42.1H38.5c-1.3,0-2.4,1.1-2.4,2.4v14.2c0,1.3,1.1,2.4,2.4,2.4h14.2c1.3,0,2.4-1.1,2.4-2.4
		V44.5C55.1,43.2,54,42.1,52.7,42.1z"/>
	<circle id="XMLID_19_" class="st4" cx="42.1" cy="46.8" r="2.4"/>
	<path id="XMLID_20_" class="st8" d="M37.4,57.5v1.2c0,0.7,0.5,1.2,1.2,1.2h7.1l-4.7-9.5L37.4,57.5z"/>
	<polygon id="XMLID_21_" class="st2" points="39.7,52.7 40.9,55.1 42.1,52.7 40.9,50.4 	"/>
	<path id="XMLID_22_" class="st9" d="M53.9,58.6v-4.9l-4.7-8.1l-8.3,14.2h11.8C53.4,59.8,53.9,59.3,53.9,58.6z"/>
	<polygon id="XMLID_23_" class="st2" points="49.2,52.7 51.3,49.2 49.2,45.6 47.1,49.2 	"/>
</g>
</svg>
